# Blender v2.93.1 OBJ File: 'guns.blend'
# www.blender.org
mtllib Rifle.mtl
o Rifle_Rifle_shape
v -1.865216 -0.723613 0.082021
v -2.372006 0.320377 0.082021
v -1.865216 -0.723613 -0.082021
v -2.372006 0.320377 -0.082021
v 1.954130 -0.459561 0.082021
v 2.201827 0.167829 0.082021
v 1.954130 -0.459561 -0.082021
v 2.201827 0.167829 -0.082021
v -2.372006 0.105519 0.082021
v -2.372006 0.105519 -0.082021
v -0.587170 -0.978606 -0.082021
v 0.279235 0.318470 -0.082021
v 2.218601 -0.109033 -0.082021
v 2.218601 -0.109033 0.082021
v 0.549329 -0.261312 0.082021
v 0.279235 0.318470 0.082021
v -0.936514 -0.591437 0.082021
v -0.936514 -0.591437 -0.082021
v -2.372006 0.212612 0.082021
v -0.501018 0.320377 0.082021
v -2.372006 0.212612 -0.082021
v -0.501018 0.320377 -0.082021
v -0.927995 -0.185644 0.082021
v -0.274157 -0.187632 0.082021
v -0.927995 -0.185644 -0.082021
v -0.274157 -0.187632 -0.082021
v -0.501018 0.212612 -0.082021
v -0.501018 0.212612 0.082021
v -2.372006 -0.340990 -0.082021
v -1.203057 -0.896438 -0.082021
v -2.372006 -0.340990 0.082021
v -1.203057 -0.896438 0.082021
v -1.787531 0.105519 0.082021
v -0.586662 -0.190217 0.082021
v 0.064914 -0.349293 -0.082021
v -1.787531 0.105519 -0.082021
v 2.137866 -0.155520 -0.082021
v 2.137866 -0.155520 0.082021
v 0.801232 -0.482863 0.082021
v 0.801232 -0.482863 -0.082021
v -0.038137 -0.286597 0.082021
v 0.133213 -0.249123 0.082021
v -0.038137 -0.286597 -0.082021
v 0.133213 -0.249123 -0.082021
v -0.752201 -0.648725 0.082021
v -0.335523 -0.362832 -0.082021
v 0.549329 -0.261312 -0.082021
v -0.587170 -0.978606 0.082021
v -0.335523 -0.362832 0.082021
v 0.064914 -0.349293 0.082021
v -0.586662 -0.190217 -0.082021
v -0.752201 -0.648725 -0.082021
v -0.309805 -0.304951 0.082021
v -0.309805 -0.304951 -0.082021
v 0.000958 -0.179903 -0.082021
v 0.000958 -0.179903 0.082021
v 1.248188 0.430456 0.082021
v 1.248188 0.430456 -0.082021
v 0.409732 0.552388 0.082021
v 0.409732 0.552388 -0.082021
vt 0.562500 0.000000
vt 0.625000 0.000000
vt 0.625000 0.250000
vt 0.562500 0.250000
vt 0.500000 0.437500
vt 0.500000 0.375000
vt 0.437500 0.500000
vt 0.375000 0.500000
vt 0.375000 0.437500
vt 0.375000 0.375000
vt 0.406250 0.375000
vt 0.437500 0.375000
vt 0.468750 0.375000
vt 0.500000 0.375000
vt 0.500000 0.500000
vt 0.625000 0.500000
vt 0.625000 0.750000
vt 0.500000 0.750000
vt 0.562500 0.937500
vt 0.625000 0.937500
vt 0.625000 1.000000
vt 0.562500 1.000000
vt 0.312500 0.500000
vt 0.375000 0.750000
vt 0.312500 0.750000
vt 0.812500 0.500000
vt 0.875000 0.500000
vt 0.875000 0.750000
vt 0.812500 0.750000
vt 0.187500 0.500000
vt 0.250000 0.500000
vt 0.250000 0.750000
vt 0.187500 0.750000
vt 0.375000 0.875000
vt 0.406250 0.875000
vt 0.421875 0.875000
vt 0.437500 0.875000
vt 0.468750 0.875000
vt 0.500000 0.875000
vt 0.500000 0.937500
vt 0.500000 0.968750
vt 0.500000 1.000000
vt 0.437500 1.000000
vt 0.375000 1.000000
vt 0.375000 0.937500
vt 0.625000 0.812500
vt 0.625000 0.843750
vt 0.625000 0.875000
vt 0.562500 0.875000
vt 0.500000 0.875000
vt 0.437500 0.750000
vt 0.718750 0.750000
vt 0.687500 0.750000
vt 0.687500 0.500000
vt 0.718750 0.500000
vt 0.375000 0.250000
vt 0.437500 0.250000
vt 0.500000 0.250000
vt 0.500000 0.281250
vt 0.500000 0.343750
vt 0.500000 0.375000
vt 0.468750 0.375000
vt 0.437500 0.375000
vt 0.421875 0.375000
vt 0.406250 0.375000
vt 0.375000 0.375000
vt 0.375000 0.312500
vt 0.562500 0.312500
vt 0.625000 0.312500
vt 0.625000 0.375000
vt 0.562500 0.375000
vt 0.437500 0.000000
vt 0.500000 0.000000
vt 0.500000 0.312500
vt 0.500000 0.343750
vt 0.750000 0.500000
vt 0.750000 0.750000
vt 0.500000 0.875000
vt 0.500000 0.906250
vt 0.500000 0.890625
vt 0.375000 0.000000
vt 0.125000 0.500000
vt 0.125000 0.750000
vt 0.250000 0.500000
vt 0.250000 0.750000
vt 0.000000 0.000000
vt 0.000000 0.000000
vt 0.000000 0.000000
vt 0.000000 0.000000
vt 0.000000 0.000000
vt 0.000000 0.000000
vt 0.000000 0.000000
vt 0.000000 0.000000
vt 0.000000 0.000000
vt 0.000000 0.000000
vt 0.000000 0.000000
vt 0.000000 0.000000
vt 0.000000 0.000000
vt 0.000000 0.000000
vt 0.000000 0.000000
vt 0.000000 0.000000
vt 0.500000 0.812500
vt 0.468750 0.875000
vt 0.437500 0.875000
vt 0.406250 0.875000
vt 0.375000 0.875000
vt 0.375000 0.812500
vt 0.625000 0.406250
vt 0.625000 0.437500
vn -1.0000 0.0000 0.0000
vn -0.0000 -0.0000 -1.0000
vn 0.9982 0.0605 0.0000
vn 0.0000 0.0000 1.0000
vn 0.0202 -0.9998 0.0000
vn 0.0000 1.0000 0.0000
vn -0.1322 -0.9912 0.0000
vn 0.4990 -0.8666 0.0000
vn 0.1439 0.9896 0.0000
vn 0.0024 1.0000 0.0000
vn -0.6025 -0.7981 0.0000
vn -0.2525 -0.9676 0.0000
vn 0.8559 -0.5172 0.0000
vn -0.6604 -0.7509 0.0000
vn 0.0134 0.9999 0.0000
vn 0.9998 -0.0210 0.0000
vn 0.2968 0.9549 0.0000
vn 0.9406 -0.3396 0.0000
vn 0.9568 -0.2907 0.0000
vn -0.0674 0.9977 0.0000
vn -0.9390 0.3440 0.0000
vn 0.0281 -0.9996 0.0000
vn -0.8733 0.4872 0.0000
vn 0.2655 0.9641 -0.0000
usemtl None
s off
f 19/1/1 2/2/1 4/3/1 21/4/1
f 43/5/2 55/6/2 37/7/2 7/8/2 40/9/2 47/10/2 44/11/2 35/12/2 46/13/2 54/14/2
f 13/15/3 8/16/3 6/17/3 14/18/3
f 28/19/4 20/20/4 2/21/4 19/22/4
f 40/23/5 7/8/5 5/24/5 39/25/5
f 22/26/6 4/27/6 2/28/6 20/29/6
f 30/30/7 11/31/7 48/32/7 32/33/7
f 48/34/4 49/35/4 53/36/4 34/37/4 45/38/4 17/39/4 23/40/4 33/41/4 9/42/4 31/43/4 1/44/4 32/45/4
f 14/18/4 6/17/4 57/46/4 59/47/4 16/48/4 24/49/4 56/50/4 38/51/4
f 37/7/8 13/15/8 14/18/8 38/51/8
f 59/52/9 57/53/9 58/54/9 60/55/9
f 3/56/2 29/57/2 10/58/2 36/59/2 25/60/2 18/61/2 52/62/2 51/63/2 54/64/2 46/65/2 11/66/2 30/67/2
f 27/68/2 22/69/2 12/70/2 26/71/2
f 31/72/1 9/73/1 10/58/1 29/57/1
f 25/74/2 27/68/2 26/71/2 54/14/2 51/75/2
f 10/58/2 21/4/2 27/68/2 25/74/2 36/59/2
f 21/4/2 4/3/2 22/69/2 27/68/2
f 12/76/10 22/26/10 20/29/10 16/77/10
f 23/40/4 28/19/4 19/22/4 9/42/4 33/41/4
f 53/78/4 24/49/4 28/19/4 23/79/4 34/80/4
f 24/49/4 16/48/4 20/20/4 28/19/4
f 9/73/1 19/1/1 21/4/1 10/58/1
f 1/81/11 31/72/11 29/57/11 3/56/11
f 3/82/12 30/30/12 32/33/12 1/83/12
f 7/8/13 37/7/13 38/51/13 5/24/13
f 47/84/14 40/23/14 39/25/14 15/85/14
f 34/86/15 51/87/15 25/88/15 23/89/15
f 25/88/16 23/89/16 17/90/16 18/91/16
f 52/92/17 18/91/17 17/90/17 45/93/17
f 45/93/18 52/92/18 51/87/18 34/86/18
f 54/94/19 26/95/19 24/96/19 53/97/19
f 53/97/20 41/98/20 43/99/20 54/94/20
f 41/98/21 56/100/21 55/101/21 43/99/21
f 56/100/22 24/96/22 26/95/22 55/101/22
f 38/51/4 56/50/4 41/102/4 53/78/4 49/103/4 50/104/4 42/105/4 15/106/4 39/107/4 5/24/4
f 55/6/2 26/71/2 12/70/2 60/108/2 58/109/2 8/16/2 13/15/2 37/7/2
f 16/77/23 59/52/23 60/55/23 12/76/23
f 58/54/24 57/53/24 6/17/24 8/16/24
l 46 49
l 35 50
l 42 44
