# Blender v2.93.1 OBJ File: 'guns.blend'
# www.blender.org
o Rifle_Rifle_shape
v -0.186522 -0.072361 0.008202
v -0.237201 0.032038 0.008202
v -0.186522 -0.072361 -0.008202
v -0.237201 0.032038 -0.008202
v 0.195413 -0.045956 0.008202
v 0.220183 0.016783 0.008202
v 0.195413 -0.045956 -0.008202
v 0.220183 0.016783 -0.008202
v -0.237201 0.010552 0.008202
v -0.237201 0.010552 -0.008202
v -0.058717 -0.097861 -0.008202
v 0.027923 0.031847 -0.008202
v 0.221860 -0.010903 -0.008202
v 0.221860 -0.010903 0.008202
v 0.054933 -0.026131 0.008202
v 0.027923 0.031847 0.008202
v -0.093651 -0.059144 0.008202
v -0.093651 -0.059144 -0.008202
v -0.237201 0.021261 0.008202
v -0.050102 0.032038 0.008202
v -0.237201 0.021261 -0.008202
v -0.050102 0.032038 -0.008202
v -0.092799 -0.018564 0.008202
v -0.027416 -0.018763 0.008202
v -0.092799 -0.018564 -0.008202
v -0.027416 -0.018763 -0.008202
v -0.050102 0.021261 -0.008202
v -0.050102 0.021261 0.008202
v -0.237201 -0.034099 -0.008202
v -0.120306 -0.089644 -0.008202
v -0.237201 -0.034099 0.008202
v -0.120306 -0.089644 0.008202
v -0.178753 0.010552 0.008202
v -0.058666 -0.019022 0.008202
v 0.006491 -0.034929 -0.008202
v -0.178753 0.010552 -0.008202
v 0.213787 -0.015552 -0.008202
v 0.213787 -0.015552 0.008202
v 0.080123 -0.048286 0.008202
v 0.080123 -0.048286 -0.008202
v -0.003814 -0.028660 0.008202
v 0.013321 -0.024912 0.008202
v -0.003814 -0.028660 -0.008202
v 0.013321 -0.024912 -0.008202
v -0.075220 -0.064872 0.008202
v -0.033552 -0.036283 -0.008202
v 0.054933 -0.026131 -0.008202
v -0.058717 -0.097861 0.008202
v -0.033552 -0.036283 0.008202
v 0.006491 -0.034929 0.008202
v -0.058666 -0.019022 -0.008202
v -0.075220 -0.064872 -0.008202
v -0.030980 -0.030495 0.008202
v -0.030980 -0.030495 -0.008202
v 0.000096 -0.017990 -0.008202
v 0.000096 -0.017990 0.008202
v 0.124819 0.043046 0.008202
v 0.124819 0.043046 -0.008202
v 0.040973 0.055239 0.008202
v 0.040973 0.055239 -0.008202
vt 0.625000 0.000000
vt 0.562500 0.250000
vt 0.562500 0.000000
vt 0.500000 0.437500
vt 0.500000 0.375000
vt 0.406250 0.375000
vt 0.625000 0.500000
vt 0.500000 0.750000
vt 0.500000 0.500000
vt 0.625000 0.937500
vt 0.562500 1.000000
vt 0.562500 0.937500
vt 0.375000 0.500000
vt 0.312500 0.750000
vt 0.312500 0.500000
vt 0.875000 0.500000
vt 0.812500 0.750000
vt 0.812500 0.500000
vt 0.250000 0.500000
vt 0.187500 0.750000
vt 0.187500 0.500000
vt 0.375000 0.875000
vt 0.406250 0.875000
vt 0.468750 0.875000
vt 0.500000 0.875000
vt 0.437500 0.750000
vt 0.625000 0.812500
vt 0.437500 0.500000
vt 0.687500 0.750000
vt 0.718750 0.500000
vt 0.718750 0.750000
vt 0.468750 0.375000
vt 0.406250 0.375000
vt 0.375000 0.375000
vt 0.562500 0.312500
vt 0.625000 0.375000
vt 0.562500 0.375000
vt 0.500000 0.000000
vt 0.437500 0.250000
vt 0.437500 0.000000
vt 0.500000 0.375000
vt 0.500000 0.343750
vt 0.500000 0.281250
vt 0.625000 0.250000
vt 0.750000 0.750000
vt 0.750000 0.500000
vt 0.500000 1.000000
vt 0.500000 0.968750
vt 0.500000 0.906250
vt 0.500000 0.890625
vt 0.625000 0.875000
vt 0.562500 0.875000
vt 0.500000 0.250000
vt 0.375000 0.250000
vt 0.375000 0.000000
vt 0.125000 0.750000
vt 0.125000 0.500000
vt 0.375000 0.750000
vt 0.250000 0.500000
vt 0.250000 0.750000
vt 0.000000 0.000000
vt 0.000000 0.000000
vt 0.000000 0.000000
vt 0.000000 0.000000
vt 0.000000 0.000000
vt 0.000000 0.000000
vt 0.000000 0.000000
vt 0.000000 0.000000
vt 0.000000 0.000000
vt 0.000000 0.000000
vt 0.000000 0.000000
vt 0.000000 0.000000
vt 0.000000 0.000000
vt 0.000000 0.000000
vt 0.000000 0.000000
vt 0.000000 0.000000
vt 0.500000 0.812500
vt 0.406250 0.875000
vt 0.625000 0.437500
vt 0.687500 0.500000
vt 0.000000 0.000000
vt 0.000000 0.000000
vt 0.000000 0.000000
vt 0.000000 0.000000
vt 0.000000 0.000000
vt 0.000000 0.000000
vt 0.000000 0.000000
vt 0.000000 0.000000
vt 0.000000 0.000000
vt 0.375000 0.375000
vt 0.375000 0.437500
vt 0.437500 0.375000
vt 0.468750 0.375000
vt 0.625000 0.750000
vt 0.625000 1.000000
vt 0.875000 0.750000
vt 0.250000 0.750000
vt 0.421875 0.875000
vt 0.437500 0.875000
vt 0.375000 1.000000
vt 0.375000 0.937500
vt 0.500000 0.875000
vt 0.437500 1.000000
vt 0.500000 0.937500
vt 0.625000 0.843750
vt 0.375000 0.312500
vt 0.500000 0.375000
vt 0.500000 0.343750
vt 0.437500 0.375000
vt 0.421875 0.375000
vt 0.625000 0.312500
vt 0.500000 0.312500
vt 0.500000 0.875000
vt 0.375000 0.875000
vt 0.468750 0.875000
vt 0.375000 0.812500
vt 0.437500 0.875000
vt 0.625000 0.406250
vt 0.000000 0.000000
vn -1.0000 0.0000 0.0000
vn 0.0000 0.0000 -1.0000
vn 0.9982 0.0605 0.0000
vn 0.0000 0.0000 1.0000
vn 0.0202 -0.9998 0.0000
vn 0.0000 1.0000 0.0000
vn -0.1322 -0.9912 0.0000
vn 0.4990 -0.8666 0.0000
vn 0.1439 0.9896 0.0000
vn 0.0024 1.0000 0.0000
vn -0.6025 -0.7981 0.0000
vn -0.2525 -0.9676 0.0000
vn 0.8559 -0.5172 0.0000
vn -0.6604 -0.7509 0.0000
vn -0.0134 -0.9999 0.0000
vn 0.9998 -0.0210 0.0000
vn 0.2968 0.9549 0.0000
vn -0.9406 0.3396 0.0000
vn 0.9568 -0.2907 0.0000
vn -0.0674 0.9977 0.0000
vn -0.9390 0.3440 0.0000
vn 0.0281 -0.9996 0.0000
vn -0.8733 0.4872 0.0000
vn 0.2655 0.9641 -0.0000
vn 0.8262 -0.5633 0.0000
vn -0.0293 -0.9996 0.0000
vn 0.0338 -0.9994 0.0000
vn 0.9257 -0.3783 0.0000
s off
f 2/1/1 21/2/1 19/3/1
f 43/4/2 55/5/2 44/6/2
f 8/7/3 14/8/3 13/9/3
f 20/10/4 19/11/4 28/12/4
f 7/13/5 39/14/5 40/15/5
f 4/16/6 20/17/6 22/18/6
f 11/19/7 32/20/7 30/21/7
f 48/22/4 49/23/4 45/24/4
f 56/25/4 38/26/4 57/27/4
f 13/9/8 38/26/8 37/28/8
f 57/29/9 60/30/9 59/31/9
f 52/32/2 46/33/2 11/34/2
f 27/35/2 12/36/2 26/37/2
f 9/38/1 29/39/1 31/40/1
f 26/37/2 54/41/2 51/42/2
f 21/2/2 27/35/2 36/43/2
f 4/44/2 27/35/2 21/2/2
f 22/18/10 16/45/10 12/46/10
f 19/11/4 9/47/4 33/48/4
f 28/12/4 23/49/4 34/50/4
f 16/51/4 28/12/4 24/52/4
f 19/3/1 10/53/1 9/38/1
f 31/40/11 3/54/11 1/55/11
f 30/21/12 1/56/12 3/57/12
f 37/28/13 5/58/13 7/13/13
f 47/59/14 39/14/14 15/60/14
f 23/61/15 51/62/15 34/63/15
f 23/61/16 18/64/16 25/65/16
f 52/66/17 17/67/17 45/68/17
f 34/63/18 52/66/18 45/68/18
f 26/69/19 53/70/19 54/71/19
f 41/72/20 54/71/20 53/70/20
f 41/72/21 55/73/21 43/74/21
f 24/75/22 55/73/22 56/76/22
f 56/25/4 41/77/4 42/78/4
f 55/5/2 12/36/2 58/79/2
f 59/31/23 12/46/23 16/45/23
f 57/29/24 8/7/24 58/80/24
f 42/81/25 35/82/25 44/83/25
f 42/81/26 47/84/26 15/85/26
f 35/82/27 49/86/27 46/87/27
f 46/87/28 48/88/28 11/89/28
f 2/1/1 4/44/1 21/2/1
f 55/5/2 37/28/2 47/90/2
f 37/28/2 7/13/2 47/90/2
f 7/13/2 40/91/2 47/90/2
f 44/6/2 35/92/2 43/4/2
f 35/92/2 46/93/2 43/4/2
f 55/5/2 47/90/2 44/6/2
f 46/93/2 54/41/2 43/4/2
f 8/7/3 6/94/3 14/8/3
f 20/10/4 2/95/4 19/11/4
f 7/13/5 5/58/5 39/14/5
f 4/16/6 2/96/6 20/17/6
f 11/19/7 48/97/7 32/20/7
f 49/23/4 53/98/4 34/99/4
f 49/23/4 34/99/4 45/24/4
f 1/100/4 32/101/4 17/102/4
f 32/101/4 48/22/4 45/24/4
f 17/102/4 32/101/4 45/24/4
f 9/47/4 31/103/4 33/48/4
f 31/103/4 1/100/4 17/102/4
f 23/104/4 33/48/4 31/103/4
f 17/102/4 23/104/4 31/103/4
f 38/26/4 14/8/4 6/94/4
f 6/94/4 57/27/4 38/26/4
f 57/27/4 59/105/4 16/51/4
f 16/51/4 24/52/4 56/25/4
f 57/27/4 16/51/4 56/25/4
f 13/9/8 14/8/8 38/26/8
f 57/29/9 58/80/9 60/30/9
f 30/106/2 3/54/2 18/107/2
f 3/54/2 29/39/2 18/107/2
f 30/106/2 18/107/2 52/32/2
f 29/39/2 10/53/2 36/43/2
f 36/43/2 25/108/2 29/39/2
f 25/108/2 18/107/2 29/39/2
f 52/32/2 51/109/2 46/33/2
f 51/109/2 54/110/2 46/33/2
f 11/34/2 30/106/2 52/32/2
f 27/35/2 22/111/2 12/36/2
f 9/38/1 10/53/1 29/39/1
f 51/42/2 25/112/2 27/35/2
f 27/35/2 26/37/2 51/42/2
f 36/43/2 10/53/2 21/2/2
f 27/35/2 25/112/2 36/43/2
f 4/44/2 22/111/2 27/35/2
f 22/18/10 20/17/10 16/45/10
f 33/48/4 23/104/4 28/12/4
f 28/12/4 19/11/4 33/48/4
f 34/50/4 53/113/4 24/52/4
f 24/52/4 28/12/4 34/50/4
f 16/51/4 20/10/4 28/12/4
f 19/3/1 21/2/1 10/53/1
f 31/40/11 29/39/11 3/54/11
f 30/21/12 32/20/12 1/56/12
f 37/28/13 38/26/13 5/58/13
f 47/59/14 40/15/14 39/14/14
f 23/61/15 25/65/15 51/62/15
f 23/61/16 17/67/16 18/64/16
f 52/66/17 18/64/17 17/67/17
f 34/63/18 51/62/18 52/66/18
f 26/69/19 24/75/19 53/70/19
f 41/72/20 43/74/20 54/71/20
f 41/72/21 56/76/21 55/73/21
f 24/75/22 26/69/22 55/73/22
f 5/58/4 38/26/4 15/114/4
f 38/26/4 56/25/4 15/114/4
f 41/77/4 53/113/4 49/115/4
f 15/114/4 39/116/4 5/58/4
f 49/115/4 50/117/4 41/77/4
f 50/117/4 42/78/4 41/77/4
f 42/78/4 15/114/4 56/25/4
f 55/5/2 26/37/2 12/36/2
f 12/36/2 60/118/2 58/79/2
f 58/79/2 8/7/2 37/28/2
f 8/7/2 13/9/2 37/28/2
f 37/28/2 55/5/2 58/79/2
f 59/31/23 60/30/23 12/46/23
f 57/29/24 6/94/24 8/7/24
f 42/81/25 50/119/25 35/82/25
f 42/81/26 44/83/26 47/84/26
f 35/82/27 50/119/27 49/86/27
f 46/87/28 49/86/28 48/88/28
